<svg xmlns="http://www.w3.org/2000/svg" viewBox="0 0 320 554" role="img" aria-label="The dashboard home as one attention list: Now, Next, Held until the next breakpoint, Waiting on others, with a mode chip in the header and a three-field explanation on the top item" font-family="'Source Sans 3','Liberation Sans',Arial,sans-serif" font-size="11" fill="#e7ebf2">
  <rect x="6" y="6" width="308" height="542" rx="26" fill="#0b0d12" stroke="#2a323b" stroke-width="2"/>
  <text x="26" y="48" font-size="19" font-weight="700">Attention</text>
  <rect x="176" y="30" width="118" height="26" rx="13" fill="#1b2536" stroke="#6ea8fe"/>
  <text x="235" y="47" text-anchor="middle" font-size="11">Work · until 17:00 ▾</text>
  <text x="26" y="82" font-size="10.5" letter-spacing="1.2" fill="#8b93a3">NOW · 2</text>
  <rect x="24" y="90" width="272" height="90" rx="10" fill="#151922"/>
  <rect x="32" y="100" width="3" height="70" rx="1.5" fill="#e08a2e"/>
  <rect x="42" y="100" width="70" height="16" rx="8" fill="#1f2a3a"/>
  <circle cx="51" cy="108" r="3" fill="#6ea8fe"/>
  <text x="58" y="112" font-size="10.5" fill="#cbd3dd">customers</text>
  <text x="288" y="112" text-anchor="end" font-size="11" fill="#8b93a3">due 17:00 · thread</text>
  <text x="42" y="132" font-size="13" font-weight="600">Quote for Müller AG</text>
  <text x="42" y="147" font-size="10" fill="#8b93a3">importance 4 · due in 5 h · Work admits customers</text>
  <rect x="42" y="156" width="48" height="18" rx="9" fill="#6ea8fe"/>
  <text x="66" y="169" text-anchor="middle" font-size="10.5" font-weight="700" fill="#0b0d12">Do it</text>
  <rect x="96" y="156" width="46" height="18" rx="9" fill="#1f2a3a" stroke="#2a323b"/>
  <text x="119" y="169" text-anchor="middle" font-size="10.5">Later</text>
  <rect x="148" y="156" width="66" height="18" rx="9" fill="#1f2a3a" stroke="#2a323b"/>
  <text x="181" y="169" text-anchor="middle" font-size="10.5">Correct…</text>
  <rect x="24" y="186" width="272" height="56" rx="10" fill="#151922"/>
  <rect x="32" y="196" width="3" height="36" rx="1.5" fill="#e08a2e"/>
  <rect x="42" y="196" width="70" height="16" rx="8" fill="#1f2a3a"/>
  <circle cx="51" cy="204" r="3" fill="#6ea8fe"/>
  <text x="58" y="208" font-size="10.5" fill="#cbd3dd">customers</text>
  <text x="288" y="208" text-anchor="end" font-size="11" fill="#8b93a3">2 messages · 14:20</text>
  <text x="42" y="232" font-size="13" font-weight="600">WhatsApp · Anna Keller</text>
  <text x="26" y="268" font-size="10.5" letter-spacing="1.2" fill="#8b93a3">NEXT · 3</text>
  <rect x="24" y="276" width="272" height="56" rx="10" fill="#151922"/>
  <rect x="32" y="286" width="3" height="36" rx="1.5" fill="#4fb3b9"/>
  <rect x="42" y="286" width="52" height="16" rx="8" fill="#1f2a3a"/>
  <circle cx="51" cy="294" r="3" fill="#c9a0ff"/>
  <text x="58" y="298" font-size="10.5" fill="#cbd3dd">admin</text>
  <text x="288" y="298" text-anchor="end" font-size="11" fill="#8b93a3">due 25 Sept · project</text>
  <text x="42" y="322" font-size="13" font-weight="600">Quarterly VAT return</text>
  <rect x="24" y="338" width="272" height="56" rx="10" fill="#151922"/>
  <rect x="32" y="348" width="3" height="36" rx="1.5" fill="#4fb3b9"/>
  <rect x="42" y="348" width="70" height="16" rx="8" fill="#1f2a3a"/>
  <circle cx="51" cy="356" r="3" fill="#6ea8fe"/>
  <text x="58" y="360" font-size="10.5" fill="#cbd3dd">customers</text>
  <text x="288" y="360" text-anchor="end" font-size="11" fill="#8b93a3">chat · 10:05</text>
  <text x="42" y="384" font-size="13" font-weight="600">Contract clause question</text>
  <rect x="24" y="400" width="272" height="56" rx="10" fill="#151922"/>
  <rect x="32" y="410" width="3" height="36" rx="1.5" fill="#4fb3b9"/>
  <rect x="42" y="410" width="58" height="16" rx="8" fill="#1f2a3a"/>
  <circle cx="51" cy="418" r="3" fill="#57c785"/>
  <text x="58" y="422" font-size="10.5" fill="#cbd3dd">friends</text>
  <text x="288" y="422" text-anchor="end" font-size="11" fill="#8b93a3">chat · 08:40</text>
  <text x="42" y="446" font-size="13" font-weight="600">Dinner on Friday?</text>
  <rect x="24" y="470" width="272" height="34" rx="10" fill="#10141b" stroke="#1f2630"/>
  <text x="36" y="491" font-size="10.5" letter-spacing="1.2" fill="#8b93a3">HELD UNTIL 17:00 · 4</text>
  <text x="284" y="492" text-anchor="end" font-size="12" fill="#8b93a3">▸</text>
  <rect x="24" y="510" width="272" height="34" rx="10" fill="#10141b" stroke="#1f2630"/>
  <text x="36" y="531" font-size="10.5" letter-spacing="1.2" fill="#8b93a3">WAITING ON OTHERS · 5</text>
  <text x="284" y="532" text-anchor="end" font-size="12" fill="#8b93a3">▸</text>
</svg>
